<svg width="60" height="60" viewBox="0 0 60 60" fill="none" xmlns="http://www.w3.org/2000/svg">
<g clip-path="url(#clip0_1_88)">
<path d="M45.8414 35.4356H24.1828L36.1493 28.7667C37.4002 28.0669 37.8521 26.4796 37.1558 25.2271L35.3722 22.0293C34.671 20.7765 33.0822 20.3272 31.8321 21.0264L26.8544 23.8001C27.4397 22.6254 27.804 21.4736 27.9388 20.3549C28.1633 18.4922 27.7406 16.811 26.7164 15.493C25.0518 13.3509 22.1452 12.6389 19.6478 13.7612C19.2051 13.9602 19.0075 14.4804 19.2065 14.9232C19.4054 15.3659 19.9256 15.5636 20.3685 15.3646C22.1236 14.5757 24.1633 15.0721 25.3285 16.5716C27.0017 18.7248 26.3598 22.0928 23.6182 25.6034L22.5567 26.1948L21.7886 24.8187C21.5913 24.4642 21.3353 24.1549 21.0341 23.8996C21.2208 22.7818 21.7412 21.3353 22.3166 20.3904C22.569 19.9758 22.4377 19.4351 22.0231 19.1827C21.6085 18.9301 21.0678 19.0617 20.8153 19.4762C20.1961 20.493 19.6595 21.9021 19.3896 23.1487C18.6535 23.0312 17.906 23.1608 17.2484 23.5275L16.9445 23.6969C16.8239 21.1609 17.2171 19.0384 18.103 17.5077C18.3462 17.0876 18.2028 16.5499 17.7826 16.3068C17.3628 16.0638 16.8249 16.207 16.5817 16.6271C15.4061 18.6585 14.9581 21.3538 15.2458 24.6439L14.1844 25.2356C9.69986 21.902 5.31178 21.2204 2.36768 23.4291C0.23627 25.0278 -0.566699 27.8571 0.415098 30.3093C1.41682 32.811 3.92158 34.3344 7.37229 34.6561L2.27615 37.4958C1.026 38.1929 0.575176 39.7791 1.27174 41.0323L3.05498 44.2328C3.53018 45.0843 4.41822 45.5648 5.3324 45.5648C5.76061 45.5648 6.19455 45.4594 6.59451 45.2373C6.59486 45.2372 6.59522 45.2369 6.59557 45.2367L12.3386 42.0362V56.3518C12.3386 58.0728 13.7391 59.473 15.4606 59.473H44.8528C46.5743 59.473 47.9749 58.0728 47.9749 56.3518V37.5685C47.9748 36.3925 47.0178 35.4356 45.8414 35.4356ZM16.5511 37.6764L13.9465 33.0053L21.8778 28.5858L24.4821 33.2564L20.5163 35.4666C20.3747 35.5045 20.2474 35.5767 20.1437 35.6742L16.5511 37.6764ZM32.6892 22.5613C32.8188 22.4887 32.9596 22.4543 33.0987 22.4543C33.3949 22.4543 33.6831 22.6105 33.8379 22.8867L35.6201 26.0821C35.846 26.4885 35.6984 27.0047 35.2924 27.2318L26.0176 32.4006L23.4134 27.73L32.6892 22.5613ZM18.1044 25.0631C18.3402 24.9316 18.6008 24.8648 18.8657 24.8648C19.0118 24.8648 19.1591 24.8852 19.3042 24.9264C19.7121 25.0421 20.0489 25.3075 20.2532 25.6747L21.021 27.0502L13.0903 31.4694L12.3213 30.0898C12.1699 29.8185 12.1046 29.5141 12.1281 29.2091C12.1289 29.2007 12.13 29.1923 12.1306 29.1839C12.1397 29.0866 12.1571 28.9894 12.1845 28.8932C12.3001 28.4865 12.5657 28.1504 12.9328 27.9463L18.1044 25.0631ZM2.04693 29.656C1.3601 27.9405 1.92564 25.9583 3.42248 24.8355C5.57815 23.2186 8.90814 23.733 12.4862 26.1826L12.0779 26.4102C11.4315 26.7696 10.9344 27.3223 10.6445 27.9919C9.48389 27.6264 8.44162 27.4257 6.94853 27.2623C6.46561 27.2098 6.03201 27.5578 5.97916 28.0403C5.92631 28.5228 6.27471 28.9568 6.75717 29.0096C8.39955 29.1894 9.36576 29.4131 10.3927 29.7573C10.4463 30.1699 10.5777 30.5723 10.7861 30.9458L11.5551 32.3255L10.5955 32.8602C6.23381 33.337 3.04385 32.146 2.04693 29.656ZM5.73998 43.7014C5.33885 43.9234 4.81232 43.7749 4.59014 43.3769L2.80772 40.1778C2.58178 39.7714 2.72744 39.2571 3.13209 39.0315L11.2615 34.5015C11.2873 34.4887 11.3122 34.4749 11.3364 34.4598L12.4111 33.861L15.0157 38.5321L12.8042 39.7646C12.7995 39.7671 12.7949 39.7698 12.7902 39.7724L5.73998 43.7014ZM14.0964 56.3519V41.0568L21.0286 37.1934H25.0813V44.977C25.0813 45.4624 25.4748 45.8559 25.9602 45.8559C26.4456 45.8559 26.8391 45.4624 26.8391 44.977V37.1934H33.4742V57.7153H26.8391V49.1412C26.8391 48.6558 26.4456 48.2623 25.9602 48.2623C25.4748 48.2623 25.0813 48.6558 25.0813 49.1412V57.7153H15.4606C14.7083 57.7153 14.0964 57.1037 14.0964 56.3519ZM46.217 56.3519C46.217 57.1037 45.6051 57.7153 44.8528 57.7153H35.2321V37.1934H45.8414C46.045 37.1934 46.217 37.3652 46.217 37.5685V56.3519Z" fill="black"/>
<path d="M42.6187 15.7446C42.6304 15.8527 43.7458 26.5994 39.9829 30.6784C39.6537 31.0353 39.6762 31.5913 40.033 31.9204C40.2019 32.0762 40.4156 32.1532 40.6287 32.1532C40.8656 32.1532 41.1017 32.0581 41.275 31.8702C45.5736 27.2104 44.4177 16.0289 44.3663 15.5551C44.3141 15.0726 43.8807 14.7243 43.3979 14.776C42.9153 14.8285 42.5664 15.262 42.6187 15.7446Z" fill="black"/>
<path d="M50.6579 14.4386C49.1711 16.7153 48.6987 18.7473 48.6792 18.8327C48.5719 19.3054 48.8678 19.7749 49.3403 19.8832C49.4063 19.8982 49.472 19.9054 49.5369 19.9054C49.9371 19.9054 50.2991 19.6298 50.393 19.2234C50.3972 19.2051 50.8322 17.3664 52.1639 15.3475C53.9162 12.691 56.3249 10.9811 59.3229 10.2655C59.7951 10.1528 60.0865 9.67869 59.9738 9.20654C59.8612 8.73439 59.3871 8.44307 58.9149 8.55568C55.4933 9.37236 52.6381 11.4066 50.6579 14.4386Z" fill="black"/>
<path d="M32.6287 9.61027C32.6317 9.6316 32.6357 9.6827 32.6278 9.78582L32.4209 12.3431C32.3915 12.6143 32.3333 13.2213 32.8288 13.5962C33.3327 13.9775 33.9246 13.7384 34.1863 13.6329L36.5352 12.6539C36.5817 12.6389 36.6965 12.6384 36.7389 12.6515L39.1064 13.6364C39.2554 13.6966 39.5223 13.8044 39.8195 13.8044C40.0258 13.8044 40.2467 13.7525 40.4527 13.5965C40.9467 13.2226 40.889 12.6154 40.8596 12.3436L40.6563 9.78992C40.6485 9.68703 40.6513 9.63477 40.654 9.61156L42.3604 7.55527C42.5575 7.33145 42.9467 6.87828 42.7634 6.2907C42.5774 5.69457 41.9718 5.54422 41.713 5.48L39.1187 4.83652L37.7543 2.55898C37.6288 2.34723 37.2955 1.78496 36.6444 1.7832C36.6434 1.7832 36.6423 1.7832 36.6414 1.7832C35.9921 1.7832 35.6556 2.34359 35.5288 2.55488C35.5287 2.55512 35.5286 2.55535 35.5285 2.55559L34.1746 4.81578L34.1623 4.83664L31.5661 5.48047C31.3081 5.54492 30.7036 5.69598 30.5182 6.29199C30.3354 6.87945 30.7377 7.3482 30.9205 7.55574L32.6287 9.61027ZM34.6691 6.52191C35.2552 6.37707 35.4666 6.0868 35.6482 5.77672L36.6401 4.11992L37.6411 5.79078C37.8219 6.09441 38.0322 6.37883 38.6104 6.52168L40.5373 6.99957L39.2964 8.49488C38.8885 8.97699 38.8721 9.51149 38.9037 9.92645L39.0455 11.7072L37.4185 11.0304C36.9563 10.8351 36.3324 10.8345 35.8657 11.0287L34.2359 11.7079L34.3803 9.92352C34.4088 9.5477 34.3998 8.99129 33.9921 8.50086L32.7437 6.99945L34.6691 6.52191Z" fill="black"/>
<path d="M59.5474 27.7616C59.7327 27.5533 60.1357 27.0859 59.9538 26.4982C59.7688 25.9001 59.1611 25.7492 58.9014 25.6847L56.3107 25.0422L54.9436 22.7595C54.8168 22.5483 54.4804 21.9878 53.831 21.9878C53.83 21.9878 53.8289 21.9878 53.828 21.9878C53.1792 21.9896 52.8459 22.5479 52.7194 22.7613L51.3629 25.0203L51.35 25.0422L48.7591 25.6847C48.4997 25.749 47.8919 25.9 47.7069 26.4981C47.5251 27.0858 47.928 27.5531 48.1133 27.7614L49.8184 29.8162C49.8211 29.8392 49.824 29.8906 49.8164 29.9903L49.6092 32.5472C49.5817 32.8176 49.5253 33.4296 50.0221 33.8029C50.5249 34.1807 51.1143 33.9427 51.3748 33.8373L53.7239 32.8583C53.7717 32.843 53.8891 32.843 53.9305 32.8559L56.2949 33.8408C56.4437 33.901 56.7104 34.0088 57.0077 34.0088C57.2132 34.0088 57.4333 33.9572 57.6389 33.8028C58.1357 33.4295 58.0793 32.8176 58.0518 32.5471L57.8449 29.9944C57.8371 29.8916 57.8399 29.8394 57.8426 29.816L59.5474 27.7616ZM56.485 28.6995C56.0769 29.1815 56.0605 29.7161 56.0922 30.1323L56.2364 31.9124L54.6063 31.2332C54.1422 31.0398 53.5184 31.0399 53.0543 31.2332L51.4242 31.9124L51.5688 30.128C51.6002 29.7161 51.5838 29.1815 51.1813 28.7059L49.9351 27.204L51.8634 26.7258C52.4449 26.5805 52.6554 26.291 52.8364 25.982L53.8317 24.3237L54.789 25.9219L54.8245 25.982C55.0055 26.2912 55.2161 26.5806 55.7991 26.7262L57.726 27.204L56.485 28.6995Z" fill="black"/>
<path d="M50.6245 9.31486C53.049 9.31486 55.0215 7.34447 55.0215 4.92256C55.0215 2.49877 53.049 0.526855 50.6245 0.526855C48.2 0.526855 46.2275 2.49877 46.2275 4.92256C46.2275 7.34447 48.2 9.31486 50.6245 9.31486ZM50.6245 2.28467C52.0798 2.28467 53.2637 3.46803 53.2637 4.92256C53.2637 6.37522 52.0798 7.55705 50.6245 7.55705C49.1693 7.55705 47.9855 6.37522 47.9855 4.92256C47.9854 3.46803 49.1693 2.28467 50.6245 2.28467Z" fill="black"/>
</g>
<defs>
<clipPath id="clip0_1_88">
<rect width="60" height="60" fill="white"/>
</clipPath>
</defs>
</svg>
