<svg width="54" height="49" viewBox="0 0 54 49" fill="none" xmlns="http://www.w3.org/2000/svg">
<g clip-path="url(#clip0_1_108)">
<path d="M0.0876405 30.229C0.14438 30.1045 0.227693 29.9914 0.332842 29.8963L13.8323 17.6467C14.2792 17.255 14.9914 17.2663 15.423 17.6718C15.8442 18.0674 15.8442 18.6946 15.423 19.0902L3.84271 29.5983L25.8761 29.5983C40.1592 29.5835 51.734 19.0805 51.7501 6.11995C51.7501 5.55618 52.2538 5.09912 52.8751 5.09912C53.4964 5.09912 54 5.55618 54 6.11995C53.9826 20.2077 41.4013 31.624 25.8761 31.6398L3.84271 31.6398L15.4207 42.1458C15.8676 42.5375 15.8799 43.1837 15.4482 43.5892C15.0166 43.9947 14.3044 44.0059 13.8575 43.6142C13.8481 43.606 13.839 43.5976 13.83 43.5892L0.330526 31.3397C0.00822603 31.048 -0.0885909 30.6087 0.0853173 30.227L0.0876405 30.229Z" fill="#2196F3"/>
<path d="M14.6269 43.8892C15.2482 43.8903 15.7527 43.434 15.7539 42.8702C15.7544 42.5984 15.6355 42.3377 15.4234 42.1457L2.71805 30.6189L15.4234 19.0921C15.855 18.6866 15.8426 18.0404 15.3957 17.6487C14.9598 17.2665 14.2686 17.2665 13.8327 17.6487L0.333179 29.8982C-0.105975 30.2968 -0.105975 30.9429 0.333179 31.3416L13.8327 43.5911C14.0435 43.782 14.3291 43.8891 14.6269 43.8892Z" fill="black"/>
<path d="M1.1271 31.6398L25.8761 31.6398C41.4013 31.624 53.9826 20.2077 54 6.11995C54 5.55618 53.4963 5.09912 52.875 5.09912C52.2537 5.09912 51.75 5.55618 51.75 6.11995C51.7339 19.0805 40.1591 29.5836 25.8761 29.5982L1.12699 29.5982C0.505701 29.5982 0.00200435 30.0552 0.0020043 30.619C0.00211106 31.1827 0.505804 31.6398 1.1271 31.6398Z" fill="black"/>
</g>
<defs>
<clipPath id="clip0_1_108">
<rect width="54" height="49" fill="white" transform="matrix(-1 -8.74228e-08 -8.74228e-08 1 54 0)"/>
</clipPath>
</defs>
</svg>
