<svg width="54" height="49" viewBox="0 0 54 49" fill="none" xmlns="http://www.w3.org/2000/svg">
<g clip-path="url(#clip0_1_104)">
<path d="M53.9124 18.771C53.8556 18.8955 53.7723 19.0086 53.6672 19.1037L40.1677 31.3533C39.7208 31.745 39.0086 31.7337 38.577 31.3282C38.1558 30.9326 38.1558 30.3054 38.577 29.9098L50.1573 19.4017L28.1239 19.4017C13.8408 19.4165 2.26601 29.9195 2.24988 42.8801C2.24988 43.4438 1.74618 43.9009 1.12489 43.9009C0.503594 43.9009 0 43.4438 0 42.8801C0.0174017 28.7923 12.5987 17.376 28.1239 17.3602L50.1573 17.3602L38.5793 6.85421C38.1324 6.46252 38.1201 5.81626 38.5518 5.41078C38.9834 5.0053 39.6956 4.9941 40.1425 5.3858C40.1519 5.39403 40.161 5.40236 40.17 5.41078L53.6695 17.6603C53.9918 17.952 54.0886 18.3913 53.9147 18.773L53.9124 18.771Z" fill="#2196F3"/>
<path d="M39.3731 5.11077C38.7518 5.10971 38.2473 5.56601 38.2461 6.12977C38.2456 6.40156 38.3645 6.66234 38.5766 6.85431L51.2819 18.3811L38.5766 29.9079C38.145 30.3134 38.1574 30.9596 38.6043 31.3513C39.0402 31.7335 39.7314 31.7335 40.1673 31.3513L53.6668 19.1018C54.106 18.7032 54.106 18.0571 53.6668 17.6584L40.1673 5.40887C39.9565 5.21804 39.6709 5.11086 39.3731 5.11077Z" fill="black"/>
<path d="M52.8729 17.3602L28.1239 17.3602C12.5987 17.376 0.0174017 28.7923 0 42.8801C0 43.4438 0.503699 43.9009 1.12499 43.9009C1.74628 43.9009 2.24998 43.4438 2.24998 42.8801C2.26612 29.9195 13.8409 19.4164 28.1239 19.4018L52.873 19.4018C53.4943 19.4018 53.998 18.9448 53.998 18.381C53.9979 17.8172 53.4942 17.3602 52.8729 17.3602Z" fill="black"/>
</g>
<defs>
<clipPath id="clip0_1_104">
<rect width="54" height="49" fill="white" transform="matrix(1 0 0 -1 0 49)"/>
</clipPath>
</defs>
</svg>
