<svg width="55" height="55" viewBox="0 0 55 55" fill="none" xmlns="http://www.w3.org/2000/svg">
<path d="M51.9998 11.4031C51.9998 11.3978 51.9991 11.3924 51.9989 11.3869C51.9983 11.3656 51.9971 11.3446 51.9946 11.3237C51.9936 11.316 51.9922 11.3084 51.9911 11.3007C51.9882 11.2815 51.9846 11.2625 51.9802 11.244C51.9785 11.2366 51.9766 11.2293 51.9746 11.222C51.969 11.2018 51.9627 11.182 51.9555 11.1624C51.9541 11.1587 51.9533 11.1549 51.9518 11.1512L50.0048 6.16684C49.8085 5.66459 49.3331 5.33997 48.7938 5.33997H45.2486C44.8622 5.33997 44.5489 5.6532 44.5489 6.03965C44.5489 6.4261 44.8622 6.73933 45.2486 6.73933H48.7261L50.2756 10.7061H35.626L34.7081 6.73933H40.1185C40.5049 6.73933 40.8181 6.4261 40.8181 6.03965C40.8181 5.6532 40.5049 5.33997 40.1185 5.33997H33.828H26.7779H11.812C11.2726 5.33997 10.7973 5.66459 10.601 6.16703L8.65397 11.1512C8.65253 11.155 8.65177 11.1588 8.65033 11.1624C8.64306 11.1819 8.63674 11.2017 8.63119 11.222C8.62918 11.2293 8.62727 11.2366 8.62555 11.244C8.62114 11.2626 8.6176 11.2816 8.61473 11.3007C8.61358 11.3084 8.61215 11.316 8.61119 11.3237C8.6088 11.3446 8.60746 11.3656 8.60688 11.3869C8.60679 11.3923 8.60612 11.3977 8.60602 11.4031C8.60602 11.404 8.60593 11.4048 8.60593 11.4057V21.6851C8.60593 22.0716 8.91916 22.3848 9.30561 22.3848C9.69206 22.3848 10.0053 22.0716 10.0053 21.6851V12.1055H24.8365V22.7407C24.8365 23.1567 25.0815 23.5357 25.4608 23.7063C25.5997 23.7688 25.7475 23.7993 25.8944 23.7993C26.1486 23.7993 26.4 23.708 26.5972 23.5333L30.3029 20.2503L34.0086 23.5332C34.3197 23.8091 34.7659 23.8769 35.1452 23.7063C35.5243 23.5356 35.7693 23.1567 35.7693 22.7407V12.1055H50.6005V43.4886C50.6005 43.9907 50.1919 44.3992 49.6899 44.3992H36.8606C36.8606 44.3913 36.8597 44.3834 36.8596 44.3754C36.8588 44.3126 36.8565 44.2499 36.8512 44.1877C38.0558 44.5071 39.3429 43.888 39.8256 42.7042C40.0795 42.0814 40.0758 41.3971 39.815 40.7774C39.7904 40.719 39.7633 40.6623 39.7348 40.6065C39.7295 40.5963 39.7245 40.586 39.7192 40.5758C39.6911 40.5226 39.6613 40.4706 39.6298 40.42C39.6237 40.4102 39.6174 40.4006 39.6111 40.3908C39.5778 40.3389 39.5433 40.2878 39.5064 40.2388C39.5058 40.2378 39.505 40.2369 39.5043 40.2361C39.4678 40.1876 39.4291 40.1408 39.3892 40.0952C39.3819 40.0869 39.3748 40.0785 39.3674 40.0701C39.3279 40.0261 39.2868 39.9835 39.2443 39.9425C39.236 39.9344 39.2276 39.9267 39.2191 39.9188C39.1746 39.877 39.1291 39.8363 39.0816 39.7979C39.08 39.7967 39.0784 39.7955 39.0767 39.7942C39.03 39.7566 38.9815 39.721 38.932 39.6867C38.9231 39.6805 38.9143 39.6742 38.9052 39.6681C38.8558 39.6348 38.805 39.6033 38.753 39.5733C38.7487 39.5708 38.7447 39.568 38.7403 39.5655C39.0361 39.3096 39.2695 38.9857 39.4215 38.613C39.6754 37.9903 39.6716 37.306 39.4108 36.6862C39.1827 36.1438 38.7816 35.7076 38.2679 35.437C38.1945 35.3983 38.1188 35.363 38.0409 35.3313L27.1512 30.891L32.2202 29.322C33.4262 28.9487 34.1054 27.6624 33.7342 26.455C33.5957 26.0042 33.3212 25.6241 32.9665 25.3463C32.4387 24.9327 31.7333 24.746 31.0337 24.8929C31.0303 24.8937 31.0271 24.8942 31.0237 24.8951C30.985 24.9038 27.0991 25.7776 23.0406 26.569C22.8606 26.6041 22.6851 26.638 22.5122 26.6713C22.3738 26.6979 22.2374 26.7241 22.1035 26.7495C22.065 26.7569 22.0264 26.7642 21.9882 26.7715C21.7519 26.8163 21.5228 26.8593 21.3002 26.9007C21.2107 26.9173 21.1218 26.9338 21.0345 26.9498C15.9376 27.8888 14.5058 27.9056 14.1085 27.8518C14.1069 27.8517 14.1056 27.8515 14.1041 27.8512C14.098 27.8503 14.0921 27.8495 14.0865 27.8486C14.0825 27.8479 14.0788 27.8473 14.0751 27.8467C14.0724 27.8462 14.0695 27.8457 14.0669 27.8453C14.0421 27.8408 14.0228 27.8362 14.0079 27.8317L13.8932 27.7849L14.0361 27.4346C14.1766 27.0901 14.1745 26.7115 14.0303 26.3685C13.9942 26.2828 13.9503 26.2018 13.8993 26.1264C13.7466 25.9003 13.5306 25.7242 13.2722 25.6188L9.51415 24.0865C9.16971 23.9459 8.79102 23.9481 8.44811 24.0924C8.10511 24.2366 7.83896 24.5058 7.69847 24.8502L3.10311 36.1205C2.81313 36.8316 3.15584 37.6461 3.86701 37.9361L7.62516 39.4685C7.79676 39.5385 7.97429 39.5716 8.14914 39.5716C8.69876 39.5716 9.22072 39.2441 9.44074 38.7046L9.47529 38.6199L10.3418 38.9732C10.3423 38.9734 10.3427 38.9737 10.3433 38.9738C11.1721 39.3118 11.9357 39.7939 12.5966 40.3923C12.7168 40.5011 12.8336 40.6137 12.9468 40.73C13.06 40.8463 13.1695 40.9663 13.2753 41.0897C13.3281 41.1515 13.3801 41.2142 13.4309 41.2776C14.3939 42.4785 15.6564 43.4205 17.0817 44.0017L18.0566 44.3991H10.916C10.4139 44.3991 10.0054 43.9906 10.0054 43.4885V41.7181C10.0054 41.3317 9.69215 41.0184 9.30571 41.0184C8.91926 41.0184 8.60602 41.3317 8.60602 41.7181V43.4885C8.60602 44.7622 9.6422 45.7985 10.916 45.7985H21.4886L30.502 49.4737C30.8122 49.6002 31.1332 49.6602 31.4493 49.6601C32.4426 49.6601 33.3861 49.0682 33.7837 48.0931C33.9468 47.6931 33.9991 47.2751 33.9552 46.8733C34.424 46.9405 34.9101 46.8788 35.3507 46.6885C35.7985 46.4951 36.1697 46.1871 36.4332 45.7984H49.69C50.9637 45.7984 52 44.7622 52 43.4884V11.4058C51.9999 11.4048 51.9998 11.4041 51.9998 11.4031ZM27.3341 6.73933H33.2717L34.1896 10.7061H26.4162L27.3341 6.73933ZM24.9799 10.7061H10.3302L11.8797 6.73933H25.8978L24.9799 10.7061ZM34.3702 21.9838H34.3701L31.005 19.0027C30.8049 18.8254 30.5539 18.7368 30.3031 18.7368C30.0522 18.7368 29.8011 18.8254 29.601 19.0027L26.236 21.9838V12.1055H34.3702V21.9838V21.9838ZM8.14741 38.1702L4.40132 36.6428L8.9918 25.3848L12.7379 26.9123L8.14741 38.1702ZM36.1008 42.3927L35.2977 42.0652C35.2973 42.065 35.297 42.065 35.2966 42.0648C35.2963 42.0647 35.296 42.0645 35.2957 42.0644C35.2956 42.0644 35.2955 42.0643 35.2954 42.0643L26.9323 38.6543C26.5746 38.5084 26.1662 38.6801 26.0203 39.0381C25.8743 39.3959 26.0461 39.8043 26.4041 39.9502L34.7673 43.3603C34.8023 43.3746 34.8361 43.3903 34.8687 43.4077C34.8779 43.4125 34.8864 43.4185 34.8954 43.4235C34.9184 43.4366 34.9414 43.4496 34.9631 43.464C34.9736 43.471 34.9831 43.4791 34.9933 43.4863C35.0125 43.5001 35.0321 43.5137 35.0503 43.5286C35.0613 43.5376 35.0713 43.5477 35.0819 43.5571C35.0982 43.5715 35.1148 43.5855 35.1301 43.6008C35.1408 43.6113 35.1502 43.6229 35.1604 43.6338C35.1745 43.6489 35.1889 43.6638 35.2021 43.6797C35.2122 43.6918 35.221 43.7047 35.2305 43.7173C35.2425 43.733 35.2549 43.7484 35.2659 43.7646C35.2752 43.7782 35.2832 43.7926 35.2918 43.8065C35.3017 43.8225 35.3123 43.8383 35.3214 43.8549C35.3296 43.8698 35.3365 43.8854 35.344 43.9006C35.3521 43.917 35.3608 43.9331 35.3681 43.9498C35.375 43.9659 35.3807 43.9826 35.3869 43.9989C35.3932 44.0155 35.4001 44.0317 35.4057 44.0486C35.4112 44.0655 35.4154 44.0828 35.4201 44.1C35.4248 44.1169 35.4301 44.1336 35.434 44.1507C35.4379 44.168 35.4404 44.1856 35.4436 44.203C35.4467 44.2205 35.4504 44.2377 35.4527 44.2553C35.455 44.2729 35.4558 44.2907 35.4573 44.3084C35.4587 44.3262 35.4608 44.3439 35.4614 44.3617C35.4619 44.3792 35.4611 44.3969 35.4609 44.4146C35.4607 44.4327 35.461 44.4509 35.4598 44.4692C35.4588 44.4865 35.4562 44.5038 35.4543 44.5212C35.4523 44.5398 35.4507 44.5585 35.4477 44.5771C35.4449 44.5941 35.4406 44.611 35.4371 44.6281C35.433 44.6469 35.4297 44.6658 35.4246 44.6845C35.4202 44.7011 35.4143 44.7175 35.409 44.734C35.4031 44.7528 35.3976 44.7715 35.3906 44.79C35.3847 44.8027 35.3789 44.8155 35.3734 44.8285C35.3722 44.8314 35.3715 44.8345 35.3704 44.8374C35.2611 45.0897 35.0593 45.2902 34.7959 45.404C34.5059 45.5291 34.1739 45.5335 33.8849 45.4156L32.4031 44.8114C32.3962 44.8087 32.3892 44.8067 32.3823 44.8042C32.3753 44.801 32.3687 44.7974 32.3617 44.7945L25.5595 42.0209C25.2015 41.8751 24.7933 42.0468 24.6474 42.4047C24.5015 42.7625 24.6733 43.1709 25.0311 43.3168L31.8333 46.0904C31.8406 46.0934 31.8479 46.0955 31.8553 46.0982C31.8619 46.101 31.868 46.1046 31.8748 46.1072C32.4457 46.3401 32.7208 46.9939 32.4881 47.5648C32.2552 48.1359 31.6017 48.4111 31.0305 48.1781L21.8914 44.4516C21.891 44.4514 21.8906 44.4512 21.8902 44.451L17.6104 42.7059C16.857 42.3987 16.1575 41.9723 15.5399 41.4478C15.1693 41.133 14.8283 40.783 14.5228 40.4021C14.2219 40.0269 13.8917 39.6769 13.5364 39.3552C12.7548 38.6477 11.8519 38.0776 10.872 37.6779C10.8719 37.6779 10.8718 37.6778 10.8717 37.6778L10.004 37.3241L11.7322 33.0859L13.3652 29.0809L13.4857 29.13C13.5991 29.1762 13.7609 29.2418 14.1961 29.2583C14.7399 29.2829 15.6395 29.2261 17.2511 28.9985C18.3474 28.8436 19.6921 28.6197 21.2619 28.3308C21.3006 28.3238 21.339 28.3167 21.378 28.3095C21.4514 28.2959 21.5256 28.2821 21.6001 28.2683C21.658 28.2576 21.7162 28.2467 21.7748 28.2357C21.8416 28.2232 21.9087 28.2106 21.9763 28.1979C22.048 28.1844 22.1205 28.1707 22.1934 28.1569C22.2518 28.1458 22.3101 28.1347 22.369 28.1235C22.4579 28.1066 22.5484 28.0893 22.6391 28.0719C22.6858 28.0629 22.732 28.0541 22.7791 28.0451C22.9181 28.0183 23.0589 27.9911 23.2022 27.9632C27.2467 27.1766 31.1504 26.301 31.3259 26.2616C31.3434 26.2579 31.3609 26.2558 31.3784 26.2532C31.8278 26.1867 32.2682 26.4466 32.3971 26.866C32.4423 27.0134 32.4476 27.1637 32.4191 27.3052C32.3564 27.6165 32.1302 27.8852 31.8068 27.9852L24.87 30.1322C24.5876 30.2196 24.3907 30.4749 24.3779 30.7702C24.3651 31.0654 24.5391 31.337 24.8128 31.4485L37.513 36.6271C37.7895 36.7399 38.0056 36.9536 38.1214 37.2289C38.2372 37.5042 38.239 37.8082 38.1261 38.0847C38.0133 38.3613 37.7997 38.5774 37.5243 38.6932C37.3867 38.751 37.2419 38.7802 37.0969 38.7811C37.0948 38.7811 37.0927 38.7808 37.0906 38.7808C37.0565 38.7808 37.0226 38.7795 36.9886 38.7763C36.9785 38.7754 36.9686 38.7733 36.9585 38.7721C36.9326 38.7689 36.9067 38.766 36.8809 38.761C36.8647 38.7578 36.8486 38.7531 36.8324 38.7492C36.8131 38.7446 36.7937 38.7407 36.7745 38.7351C36.7547 38.7292 36.7353 38.7215 36.7157 38.7145C36.7002 38.7089 36.6845 38.7044 36.6691 38.6981L28.3051 35.2877C27.9473 35.1417 27.539 35.3135 27.3931 35.6714C27.2471 36.0293 27.4189 36.4376 27.7768 36.5836L37.917 40.7182C37.9862 40.7464 38.0516 40.7809 38.1125 40.8211C38.2954 40.9417 38.4387 41.1135 38.5255 41.32C38.6268 41.5609 38.6408 41.8237 38.5671 42.0709C38.5566 42.1062 38.5442 42.1412 38.5302 42.1758C38.5156 42.2115 38.4995 42.246 38.4818 42.2793C38.4405 42.3568 38.3903 42.4269 38.3342 42.4907C38.2993 42.5304 38.2621 42.5673 38.2225 42.6012C38.2162 42.6065 38.2104 42.6127 38.204 42.6178C37.9487 42.8267 37.6073 42.9164 37.2738 42.849C37.2061 42.8354 37.1388 42.8159 37.0726 42.7889L36.1008 42.3927Z" fill="black"/>
</svg>
